PathFileType	4	(X/Y/Z)	Patient4_TMGait_0pt4_03_left_34.trc.trc
DataRate	CameraRate	NumFrames	NumMarkers	Units	OrigDataRate	OrigDataStartFrame	OrigNumFrames
72.916666666667	72.916666666667	4	33	mm	72.916666666667	36	       141
Frame#	Time	Sacral			L.Shoulder			Chest			R.Shoulder			Neck			R.ASIS			L.ASIS			R.Thigh.Superior			R.Thigh.Lateral			R.Thigh.Inferior			R.Patella			L.Thigh.Superior			L.Thigh.Lateral			L.Thigh.Inferior			L.Patella			L.Shank.Superior			L.Shank.Lateral			L.Shank.Inferior			R.Shank.Superior			R.Shank.Lateral			R.Shank.Inferior			R.Heel			R.Midfoot.Superior			R.Midfoot.Lateral			R.Toe			L.Heel			L.Midfoot.Lateral			L.Midfoot.Superior			L.Toe			L.Elbow			L.Wrist			R.Elbow			R.Wrist			
		X1	Y1	Z1	X2	Y2	Z2	X3	Y3	Z3	X4	Y4	Z4	X5	Y5	Z5	X6	Y6	Z6	X7	Y7	Z7	X8	Y8	Z8	X9	Y9	Z9	X10	Y10	Z10	X11	Y11	Z11	X12	Y12	Z12	X13	Y13	Z13	X14	Y14	Z14	X15	Y15	Z15	X16	Y16	Z16	X17	Y17	Z17	X18	Y18	Z18	X19	Y19	Z19	X20	Y20	Z20	X21	Y21	Z21	X22	Y22	Z22	X23	Y23	Z23	X24	Y24	Z24	X25	Y25	Z25	X26	Y26	Z26	X27	Y27	Z27	X28	Y28	Z28	X29	Y29	Z29	X30	Y30	Z30	X31	Y31	Z31	X32	Y32	Z32	X33	Y33	Z33	

36	45.410000000000	865.370225272105	1004.187405155960	467.033713007269	1014.303201351289	1426.422259530543	260.379328051618	1139.372099063490	1364.367730090896	408.116519474542	1078.363566927029	1441.470535385412	589.956951745035	1015.852879930020	1492.644506037841	414.634030876060	1101.850983096001	936.829645674468	562.147570975188	1064.580227100696	960.439998637434	290.505409653264	1109.147638292892	724.507302026068	539.046306623280	1015.322240446047	626.298118248352	608.206271774316	1079.457371895770	560.106615279926	529.692878479984	1064.728265229704	462.727093798609	545.640893964784	1135.249295891760	763.393463786215	319.904561723259	1063.301433753120	637.021292906550	257.981448172809	1159.758782779150	570.694783327611	317.643994795274	1168.379129607929	500.564015692406	324.300029133584	1146.425380032103	426.405415527764	314.477541782320	1063.667656724019	307.497766163258	261.818545037259	1125.333211761384	197.668250862896	327.477350545569	1003.652686732809	388.497513405626	555.095232505699	900.896257015707	318.279913672899	620.416657366507	907.794478259680	211.452710072914	564.352776642783	729.941069246661	84.132198255727	540.204646095514	906.000884448223	101.606172416817	580.291889681995	808.107607295351	57.303745611261	615.436727488398	1012.287811938349	37.551211004387	610.038034024770	1008.589589623868	38.361338388244	368.480849001882	1080.218081551823	35.708612802030	285.838821185783	1163.077569007720	97.996631918590	311.692040823679	1291.157787062152	48.784255874490	278.734207042812	951.299648476433	1074.494268691231	158.923558293201	1004.444709856247	819.357078649287	139.889542417981	1152.182442618572	1108.047048201121	722.754681844424	1386.119714031502	1018.381736361754	669.367089918231	
37	45.423714285714	866.004340773259	1004.613283242390	463.024282941030	1014.662558649196	1427.427268330730	256.908544163523	1138.990379110326	1365.828874252973	405.418988980711	1076.550730368689	1442.519719315729	586.917979077154	1014.974394672419	1493.606627371354	411.066229421500	1102.154848070405	937.916675420847	559.012178182651	1066.049920978102	961.458925670244	287.384407370698	1112.711652886894	725.979018832565	536.242896409194	1021.008956407011	626.664990668710	605.879417658727	1086.914891408215	561.004452484718	527.777110713892	1073.285355495898	462.041689609606	545.496883323965	1135.509213137502	762.838270785683	316.571962609488	1061.840971499556	636.899199706636	255.775959919003	1157.637554115109	569.833955034887	315.493814901599	1165.684909947334	499.933339527464	322.834150650056	1143.375080700667	425.855922761686	313.199667724184	1060.115609472703	307.230727983646	260.993323048161	1120.872996597628	197.363828542472	327.141068652593	1009.888744284117	388.808902664559	554.979806518776	904.460834575790	322.090495901805	619.634760476259	909.258496744515	214.493793030826	564.914652359878	727.862344518878	92.913584614649	540.675800053301	904.298899491665	102.959566600867	581.021005103320	804.683248783653	62.363735338434	615.613559164649	1007.103115186602	37.158527313558	610.017474266555	1003.214059521824	38.338369707319	368.427201086416	1074.842989149815	35.659287227698	285.786975606906	1157.722299562470	97.926596774531	311.672906717359	1285.815857841210	48.626225885333	278.706490687025	958.620553809751	1074.679789646341	153.226906637386	1019.791074712585	821.436769253328	132.853861620376	1142.741988451224	1107.219891060446	720.184813912397	1370.871460008182	1001.434301974603	668.611791501261	
38	45.437428571429	866.466666162209	1005.000601170228	458.988131817661	1015.235339968917	1428.395814992887	253.462126185196	1138.665155256944	1367.157443038767	402.832940535705	1074.689888940509	1443.402620944817	583.952619378637	1014.164485333664	1494.476309632417	407.571506201365	1102.276211785593	938.889238598280	555.909847758294	1067.425548391700	962.381174800307	284.311753506051	1116.708452035420	727.590880911654	533.498697331079	1027.432824954828	627.030545320162	603.677697629962	1095.214672621915	562.047266771200	525.956113175703	1082.767590398933	461.554358805903	545.376734616369	1135.466344604935	762.142519477209	313.346079357515	1060.161747634464	636.794962967825	253.448108339063	1155.152328448699	568.938749902537	313.340968815119	1162.580410988881	499.264441016734	321.240476557789	1139.963796300198	425.289382831275	311.799315262019	1056.279674059634	306.871143095853	260.084333186636	1116.240387733572	197.038185042617	326.729326213444	1017.100176806401	389.269208472942	554.905214369595	909.027284670409	326.295375100623	618.915968583254	911.547569212722	217.990574381303	565.572711711047	726.629912739995	102.887379093526	541.193753464647	903.095418291244	104.651845922118	581.771966160654	801.750449075985	68.354906000320	615.818934574164	1001.902697360973	36.650344860017	610.038357093208	997.783445393468	38.311021757224	368.405383848070	1069.402367806728	35.592653569878	285.753041891487	1152.330936968260	97.806419853671	311.662989720575	1280.428811103014	48.359763246472	278.697994490853	965.812303446652	1075.071625768123	147.556372393943	1035.613769461917	824.125786617930	125.947152163327	1132.939417048156	1106.285314617674	717.348986783027	1354.163824203476	984.511595138885	668.198366229586	
39	45.451142857143	866.713488513390	1005.300221518324	454.952916265291	1016.013469994707	1429.268985019296	250.067303595061	1138.395162569322	1368.285258923768	400.378146884968	1072.800399866090	1444.070327122377	581.081193301576	1013.451733509222	1495.208591099114	404.182880614779	1102.189340247251	939.712477625277	552.872314644112	1068.663675587450	963.177071951880	281.300388057040	1121.113607713777	729.361524041727	530.829914098671	1034.564182985101	627.414894924884	601.607646380722	1104.300284928048	563.264709419726	524.229189225616	1093.092950535204	461.315738064087	545.202658666629	1135.157482347775	761.363580222866	310.278245549589	1058.386021047734	636.727798668947	250.992668116585	1152.429004892713	568.045635856428	311.188685968082	1159.187143475474	498.571811509586	319.522810241193	1136.313207483834	424.707102770599	310.280009635973	1052.270857625506	306.440993933841	259.049121431310	1111.491772178474	196.691291761810	326.235925798039	1025.237983401421	389.906983546967	554.789358982769	914.617436114318	330.879581410352	618.239244535244	914.662242095708	221.962354362759	566.264121024592	726.338992830179	114.068688093220	541.736289987369	902.401635646435	106.792127187984	582.506707267906	799.395131510263	75.366927035031	616.043517630431	996.712729103981	35.990388210782	610.110863898410	992.312387032143	38.282231870600	368.393133083473	1063.913825870367	35.513423820707	285.716826514420	1146.913279311582	97.650741849797	311.644156776714	1275.011571652652	48.013995438141	278.695013969003	972.863334254120	1075.604244217499	141.915786960414	1051.848516062451	827.407234951631	119.183838252111	1122.795460989900	1105.200828789196	714.258900308580	1336.022397567363	967.769737588739	668.131940809037	
